<?xml version="1.0" encoding="UTF-8"?><svg xmlns="http://www.w3.org/2000/svg" viewBox="0 0 1208.26 374.82"><g id="a"/><g id="b"><g id="c"><g><path d="M727.52,95.38c-50.7,0-92.16,41.57-92.16,92.48s41.46,91.82,92.04,91.82,92.37-41.34,92.37-91.82-41.56-92.48-92.25-92.48Zm-.11,35.96c28.09,0,51.42,20.77,55.58,47.74h-110.94c4.14-26.96,27.37-47.74,55.36-47.74Zm0,112.27c-26.41,0-48.59-18.42-54.49-43h109.2c-5.92,24.58-28.2,43-54.71,43Z"/><path d="M427.26,245.58l28.48-20.01c7.81,12.54,19.13,18.25,34.42,18.25,16.71,0,27.93-6.82,27.93-16.27,0-12.98-21.22-23.2-39.81-32.44-19.9-9.9-41.79-20.78-41.79-49.04,0-30.68,25.95-50.91,58.5-50.91,24.19,0,44.21,10.01,52.23,31.45l-26.28,18.36c-5.28-10.56-15.51-14.85-25.4-14.85-13.31,0-23.2,7.7-23.2,16.82,0,10.56,13.42,14.19,33.76,23.75,29.36,13.86,47.84,28.81,47.84,56.08,0,32.33-26.39,52.89-64.33,52.89-29.03,0-50.47-12.1-62.35-34.09Z"/><path d="M1013.8,134.19h-43.55v141.97h-35.74V134.19h-43.66v-35.3h122.94v35.3Z"/><path d="M1137,133.97v34.64h61.14v35.52h-61.14v36.62h71.26v35.41h-106.89V98.89h106.89v35.08h-71.26Z"/></g><path d="M187.41,0C83.91,0,0,83.91,0,187.41s83.91,187.41,187.41,187.41,187.41-83.91,187.41-187.41S290.92,0,187.41,0ZM38.75,206.44h102.02l-54.56,91.09c-25.42-23.27-42.79-55.18-47.46-91.09Zm82.53,115.05l68.85-114.95,67.58,112.82c-20.97,11.15-44.89,17.48-70.29,17.48-23.74,0-46.19-5.53-66.14-15.35Zm167.34-23.97l-101.21-168.96-23.25,38.82H38.75C48.32,93.81,111.23,36.98,187.41,36.98s139.09,56.83,148.66,130.4h-90.01l28.09,39.05h61.92c-4.67,35.9-22.04,67.82-47.46,91.09Z"/></g></g></svg>