<svg id="Layer_1" data-name="Layer 1" xmlns="http://www.w3.org/2000/svg" viewBox="0 0 600 600"><defs><style>.cls-1{fill:#010101;}</style></defs><path class="cls-1" d="M300,51.2C162.59,51.2,51.2,162.59,51.2,300S162.59,548.8,300,548.8,548.8,437.41,548.8,300,437.41,51.2,300,51.2ZM102.64,325.26H238.07L165.64,446.18A198.62,198.62,0,0,1,102.64,325.26ZM212.2,478l91.4-152.61,89.72,149.78A199.34,199.34,0,0,1,212.2,478Zm222.16-31.82L300,221.87l-30.87,51.54H102.64c12.7-97.68,96.22-173.12,197.36-173.12s184.66,75.44,197.36,173.12H377.87l37.29,51.85h82.2A198.62,198.62,0,0,1,434.36,446.18Z"/></svg>